<svg id="add-user" xmlns="http://www.w3.org/2000/svg" width="17.525" height="17.525" viewBox="0 0 17.525 17.525">
  <g id="Group_56" data-name="Group 56" transform="translate(0)">
    <g id="Group_55" data-name="Group 55">
      <path id="Path_38" data-name="Path 38" d="M12.582,8.794a8.907,8.907,0,0,0-1.03-.414,4.655,4.655,0,1,0-5.574,0A8.9,8.9,0,0,0,.045,15.017a2.08,2.08,0,0,0,2.033,2.508h8.431a.685.685,0,1,0,0-1.369H2.078a.7.7,0,0,1-.548-.26.715.715,0,0,1-.145-.6,7.564,7.564,0,0,1,7.2-5.989q.09,0,.181,0t.183,0a7.457,7.457,0,0,1,3.048.724.685.685,0,0,0,.588-1.237ZM8.93,7.937l-.167,0-.166,0a3.286,3.286,0,1,1,.333,0Z" transform="translate(0)" fill="#282828"/>
    </g>
  </g>
  <g id="Group_58" data-name="Group 58" transform="translate(11.022 11.022)">
    <g id="Group_57" data-name="Group 57">
      <path id="Path_39" data-name="Path 39" d="M327.819,324.567h-1.883v-1.883a.685.685,0,1,0-1.369,0v1.883h-1.883a.685.685,0,1,0,0,1.369h1.883v1.883a.685.685,0,1,0,1.369,0v-1.883h1.883a.685.685,0,1,0,0-1.369Z" transform="translate(-322 -322)" fill="#282828"/>
    </g>
  </g>
</svg>
