<svg xmlns="http://www.w3.org/2000/svg" width="8.512" height="7.315" viewBox="0 0 8.512 7.315">
  <g id="picture_2_" data-name="picture (2)" transform="translate(0)">
    <g id="Group_43" data-name="Group 43" transform="translate(0 0)">
      <g id="Group_42" data-name="Group 42">
        <path id="Path_31" data-name="Path 31" d="M8.18,41.653a.333.333,0,0,0-.333.333.666.666,0,0,1-.665.665H4.644l-.765-.992,2.413-3.069,1.63,1.945.01.012h0a.331.331,0,0,0,.234.108h0a.334.334,0,0,0,.071-.006h.063a.33.33,0,0,0,.043-.021h0l0,0a.334.334,0,0,0,.05-.037h0a.332.332,0,0,0,.108-.235v0h0v0h0s0,0,0-.005V37.33A1.332,1.332,0,0,0,7.182,36H1.33A1.332,1.332,0,0,0,0,37.33v4.655a1.332,1.332,0,0,0,1.33,1.33H7.182a1.332,1.332,0,0,0,1.33-1.33A.332.332,0,0,0,8.18,41.653Zm-6.85,1a.666.666,0,0,1-.665-.665V37.33a.666.666,0,0,1,.665-.665H7.182a.666.666,0,0,1,.665.665v2.078l-1.308-1.56a.333.333,0,0,0-.516.008L3.461,41.115l-.87-1.128a.332.332,0,0,0-.263-.13h0a.333.333,0,0,0-.263.13l-.732.951a.333.333,0,1,0,.527.405l.469-.609L3.8,42.65Z" transform="translate(0 -36)" fill="#909091"/>
      </g>
    </g>
    <g id="Group_45" data-name="Group 45" transform="translate(1.33 1.197)">
      <g id="Group_44" data-name="Group 44">
        <path id="Path_32" data-name="Path 32" d="M81,108a1,1,0,1,0,1,1A1,1,0,0,0,81,108Zm0,1.33A.333.333,0,1,1,81.33,109,.333.333,0,0,1,81,109.33Z" transform="translate(-80 -108)" fill="#909091"/>
      </g>
    </g>
  </g>
</svg>
