<svg id="comment" xmlns="http://www.w3.org/2000/svg" width="10.235" height="7.817" viewBox="0 0 10.235 7.817">
  <path id="Path_19" data-name="Path 19" d="M0,11.4V6.392A2.812,2.812,0,0,1,2.809,3.583H7.425a2.813,2.813,0,0,1,2.81,2.809v.864a2.812,2.812,0,0,1-2.809,2.809H2.874ZM2.809,4.209A2.185,2.185,0,0,0,.626,6.392v4.026l2.11-.98h4.69A2.185,2.185,0,0,0,9.609,7.255V6.392A2.186,2.186,0,0,0,7.425,4.209H2.809Zm.206,2.135a.6.6,0,1,1-.6.6A.6.6,0,0,1,3.015,6.344Zm4.2,0a.6.6,0,1,1-.6.6A.6.6,0,0,1,7.219,6.344Zm-2.1,0a.6.6,0,1,1-.6.6A.6.6,0,0,1,5.117,6.344Z" transform="translate(0 -3.583)" fill="#bfbfbf"/>
</svg>
