<svg xmlns="http://www.w3.org/2000/svg" width="76.602" height="102.932" viewBox="0 0 76.602 102.932">
  <g id="Layer_1" data-name="Layer 1" transform="translate(0.033)">
    <path id="Path_276" data-name="Path 276" d="M44.33.43A19.86,19.86,0,0,1,42.9,7.19c-1.22,2.83-2.89,5-6.74,8.72A93.851,93.851,0,0,0,24.61,29.19,43.9,43.9,0,0,0,20,37.3a18.28,18.28,0,0,0-1.54,9.06c.06,1,.14,2,.18,2.28s.09.68.12.89.14.84.25,1.4a26.1,26.1,0,0,0,2.62,7.28,27.51,27.51,0,0,0,5.77,7.41,35.619,35.619,0,0,0,4.56,3.77c1.06.76,3.74,2.5,3.77,2.45s.16-.41.33-.88a22.67,22.67,0,0,1,1.72-3.51c.47-.77,1.9-2.8,2.42-3.44a56.789,56.789,0,0,1,7-7.19c3.36-2.91,5.92-5.28,6.85-6.32a42.549,42.549,0,0,0,2.64-3.35C58.84,44,59.85,40,59.86,34.55a21.88,21.88,0,0,0-.14-3.18,50.34,50.34,0,0,0-4.08-13.84C52.72,10.85,48.41,4,45,.7L44.33,0Z" fill="#f2911b"/>
    <path id="Path_277" data-name="Path 277" d="M64.09,26.38s.07.45.17.92a53.22,53.22,0,0,1,.9,11.86A32.139,32.139,0,0,1,64.61,44c-.89,3.58-4.94,9.31-10.61,15-1,1-2.38,2.32-3,2.86A26.371,26.371,0,0,0,48,65c-2.25,2.6-3.69,4.9-3.89,6.21,0,.31-.16,1.09-.25,1.72a4.06,4.06,0,0,0,0,2.13c.07.2.12.26.23.21.6-.25,2.36-.82,3.4-1.09,1.66-.44,3.41-.79,6.69-1.34,7.3-1.22,9.11-1.81,12.65-4.17a19.14,19.14,0,0,0,6.65-6.8,25.92,25.92,0,0,0,1.9-7.28,41.16,41.16,0,0,0,0-6.37c-.85-7.45-4.16-15-8.64-19.63a18.36,18.36,0,0,0-2.55-2.25S64.09,26.35,64.09,26.38Z" fill="#f2911b"/>
    <path id="Path_278" data-name="Path 278" d="M13.83,38.2a27.87,27.87,0,0,0-4.27,3.51,22.67,22.67,0,0,0-3.41,4.07,17.93,17.93,0,0,0-3.27,10.3,15.19,15.19,0,0,0,1.65,6.3,20.56,20.56,0,0,0,9.55,9.27,30.32,30.32,0,0,0,9.55,2.85c1.25.18,4.17.44,4.46.4.13,0-.1-.19-.87-.67-5.79-3.57-9.5-6.94-11.71-10.64a16.16,16.16,0,0,1-2-5.33,7.566,7.566,0,0,0-.13-1c-.04-.25-.13-1-.2-1.51S13,54.4,13,54s-.11-1.6-.13-2.71a32.56,32.56,0,0,1,.31-5.49,8.577,8.577,0,0,1,.12-1c.02-.2.07-.53.11-.78s.1-.6.13-.78a36.12,36.12,0,0,1,1.53-5.7c0-.07,0-.14,0-.14a11.129,11.129,0,0,0-1.24.8Z" fill="#f2911b"/>
    <path id="Path_279" data-name="Path 279" d="M65.35,77.32c-2.82.47-6.38,1-7.88,1.22a70.849,70.849,0,0,0-11.76,2.32,19.41,19.41,0,0,0-3.37,1.24c.09.08,2.48.8,4.32,1.3A115.389,115.389,0,0,0,60,86.1l.86.09,6.94-1.52c3.82-.83,7-1.55,7.06-1.59a3.41,3.41,0,0,0,.54-1.62,3.58,3.58,0,0,0-.44-2,6.33,6.33,0,0,0-2-1.94,13.441,13.441,0,0,0-2.36-1Z" fill="#5f2d00"/>
    <path id="Path_280" data-name="Path 280" d="M6.8,78.55a12.77,12.77,0,0,0-2.16,2.19,6.18,6.18,0,0,0-1,2.37,9.16,9.16,0,0,0,.14,3l.15.69,1.06.1c3.23.3,5.49.56,9.52,1.09,1,.13,3.52.56,4.82.82a49.51,49.51,0,0,1,8.24,2.49,56.459,56.459,0,0,0,7,2.32,39.41,39.41,0,0,0,5.47.94c2.85.36,4.29.56,4.75.62.27,0,.77.12,1.1.16s1.48.2,2.56.37c3.53.52,5.33.78,6.8.94a21.85,21.85,0,0,1,5.12,1.23c2.94,1,5.43,1.54,5.31,1.23s-.45-1.58-.54-2a9.51,9.51,0,0,1,.16-3.27A6.11,6.11,0,0,1,69,90.26c.68-.27.73-.31.76-.54v-.24l-.92-.06c-.8,0-2.41-.21-4.31-.46-.73-.09-3.16-.47-4-.61-2.83-.52-4.8-.9-5.63-1.07l-1.77-.36L52,86.68l-1.33-.29a108.3,108.3,0,0,1-11.1-2.86c-2.2-.67-4.69-1.33-5.88-1.55-.85-.16-1-.18-3.67-.56-1.12-.16-2.42-.34-2.9-.42-1.3-.19-3.33-.47-6.29-.86l-2.74-.37L12,79c-2.24-.29-4.47-.61-4.62-.66a1,1,0,0,0-.58.21Z" fill="#5f2d00"/>
    <path id="Path_281" data-name="Path 281" d="M13.3,90.05c-.33.11-1.58.47-2.78.82l-2.63.76c-.26.07-.47.16-.47.2a.09.09,0,0,0,.08.07,9.31,9.31,0,0,1,2.39,1.63,5.86,5.86,0,0,1,1.74,2.58,4.61,4.61,0,0,1,.24,2,10.06,10.06,0,0,1-.46,3.17,2.6,2.6,0,0,0-.14.62s4.2-1.61,9.32-3.65,9.27-3.73,9.24-3.76S23.42,92,22,91.53a29.76,29.76,0,0,0-7.6-1.63,2.66,2.66,0,0,0-1.1.15Z" fill="#5f2d00"/>
    <path id="Path_282" data-name="Path 282" d="M71.86,90.83a5.27,5.27,0,0,0-2.47,1.47,4.15,4.15,0,0,0-1,1.39,4.82,4.82,0,0,0-.6,2.42,3.87,3.87,0,0,0,1.14,3.14,3.1,3.1,0,0,0,2.62.84,4.66,4.66,0,0,0,1.67-.18,5.11,5.11,0,0,0,3.18-3,8,8,0,0,0,0-3.27,4.29,4.29,0,0,0-2-2.74,3.84,3.84,0,0,0-2.54-.07Z" fill="#5f2d00"/>
    <path id="Path_283" data-name="Path 283" d="M4.08,93.33a4.3,4.3,0,0,0-4,3.41,10,10,0,0,0,0,3,4.09,4.09,0,0,0,2.8,2.94,4.73,4.73,0,0,0,2.07.22,4.79,4.79,0,0,0,2-.21,3.6,3.6,0,0,0,2.21-1.85,5.17,5.17,0,0,0,.53-2.79,4.44,4.44,0,0,0-.22-1.85,5.06,5.06,0,0,0-.42-.95,4.19,4.19,0,0,0-2.7-1.81,10.05,10.05,0,0,0-2.27-.11Z" fill="#5f2d00"/>
  </g>
</svg>
