<svg xmlns="http://www.w3.org/2000/svg" width="8.915" height="8.253" viewBox="0 0 8.915 8.253">
  <path id="like" d="M7.342,2.664H5.17A3.812,3.812,0,0,0,4.487.558a1.386,1.386,0,0,0-2.495.831V2.664H.348A.348.348,0,0,0,0,3.012V7.905a.348.348,0,0,0,.348.348H7.342A1.574,1.574,0,0,0,8.915,6.682V4.235A1.574,1.574,0,0,0,7.342,2.664ZM1.992,7.557H.7V3.36h1.3Zm6.226-.875a.877.877,0,0,1-.876.875H2.689V1.389A.689.689,0,0,1,3.929.974a3.354,3.354,0,0,1,.554,2.038.348.348,0,0,0,.348.348H7.342a.877.877,0,0,1,.876.875Zm0,0" transform="translate(0 0)" fill="#f2911b"/>
</svg>
