<svg id="alarm_1_" data-name="alarm (1)" xmlns="http://www.w3.org/2000/svg" width="16.5" height="19.943" viewBox="0 0 16.5 19.943">
  <g id="Group_54" data-name="Group 54" transform="translate(0)">
    <path id="Path_37" data-name="Path 37" d="M60.656,14.837a.779.779,0,0,0-1.531.287.78.78,0,0,1-.766.924H46.534a.78.78,0,0,1-.766-.924,8.039,8.039,0,0,1,1.093-2.7,6.162,6.162,0,0,0,1.059-3.3V7.946a4.536,4.536,0,0,1,4.452-4.518h.147a4.528,4.528,0,0,1,4.437,4.518V9.115a5.512,5.512,0,0,0,.783,2.786.779.779,0,1,0,1.37-.742,3.967,3.967,0,0,1-.6-2.044V7.946a6.084,6.084,0,0,0-5.3-6.028V.779a.779.779,0,1,0-1.558,0V1.92a6.1,6.1,0,0,0-5.3,6.026V9.115a4.7,4.7,0,0,1-.854,2.531,9.466,9.466,0,0,0-1.272,3.191,2.338,2.338,0,0,0,2.3,2.769h3.583a2.337,2.337,0,1,0,4.674,0h3.568a2.338,2.338,0,0,0,2.3-2.769Zm-8.2,3.548a.78.78,0,0,1-.779-.779h1.558A.78.78,0,0,1,52.454,18.385Z" transform="translate(-44.197)" fill="#282828"/>
  </g>
</svg>
