<svg xmlns="http://www.w3.org/2000/svg" width="12.602" height="11.764" viewBox="0 0 12.602 11.764">
  <g id="ic_record_voice_over_24px" transform="translate(-1 -4.977)" opacity="0.6">
    <circle id="Ellipse_3" data-name="Ellipse 3" cx="2.5" cy="2.5" r="2.5" transform="translate(3 7.741)" fill="#f2911b"/>
    <path id="Path_3" data-name="Path 3" d="M5.583,10.049c-1.529,0-4.583.83-4.583,2.477v1.238h9.165V12.526C10.165,10.879,7.112,10.049,5.583,10.049ZM10.028,4.08,9.065,5.127a2.19,2.19,0,0,1,0,2.409l.962,1.046A3.352,3.352,0,0,0,10.028,4.08ZM11.924,2,10.99,3.009a5.239,5.239,0,0,1,0,6.65l.934,1.009A6.437,6.437,0,0,0,11.924,2Z" transform="translate(0 2.977)" fill="#f2911b"/>
  </g>
</svg>
