<svg id="settings" xmlns="http://www.w3.org/2000/svg" width="18.519" height="18.519" viewBox="0 0 18.519 18.519">
  <g id="Group_74" data-name="Group 74" transform="translate(5.064 5.064)">
    <g id="Group_73" data-name="Group 73">
      <path id="Path_43" data-name="Path 43" d="M144.2,140a4.2,4.2,0,1,0,1.267,8.2.723.723,0,0,0-.437-1.379,2.745,2.745,0,1,1,1.808-1.848.723.723,0,0,0,1.389.406A4.2,4.2,0,0,0,144.2,140Z" transform="translate(-140 -140)" fill="#282828"/>
    </g>
  </g>
  <g id="Group_76" data-name="Group 76">
    <g id="Group_75" data-name="Group 75">
      <path id="Path_44" data-name="Path 44" d="M16.349,6.728h-.364a.241.241,0,0,1-.22-.151l-.006-.016a.243.243,0,0,1,.047-.266l.258-.258a2.173,2.173,0,0,0,0-3.069l-.512-.512a2.17,2.17,0,0,0-3.069,0l-.258.258a.242.242,0,0,1-.266.048l-.014-.006a.242.242,0,0,1-.154-.221V2.17A2.173,2.173,0,0,0,9.621,0H8.9a2.173,2.173,0,0,0-2.17,2.17v.364a.241.241,0,0,1-.153.221l-.014.006a.242.242,0,0,1-.266-.047l-.258-.258a2.17,2.17,0,0,0-3.069,0l-.512.511a2.173,2.173,0,0,0,0,3.069l.258.258a.244.244,0,0,1,.046.269l0,.011a.242.242,0,0,1-.221.154H2.17A2.173,2.173,0,0,0,0,8.9v.723a2.173,2.173,0,0,0,2.17,2.17h.364a.241.241,0,0,1,.22.151l.006.016a.242.242,0,0,1-.047.266l-.258.258a2.17,2.17,0,0,0,0,3.069l.512.512a2.17,2.17,0,0,0,3.069,0l.258-.258a.242.242,0,0,1,.266-.048l.014.006a.242.242,0,0,1,.154.221v.364a2.173,2.173,0,0,0,2.17,2.17h.723a2.173,2.173,0,0,0,2.17-2.17v-.364a.241.241,0,0,1,.153-.221l.014-.006a.243.243,0,0,1,.266.047l.258.258a2.17,2.17,0,0,0,3.069,0l.512-.512a2.17,2.17,0,0,0,0-3.069l-.258-.258a.242.242,0,0,1-.047-.266l.005-.013a.242.242,0,0,1,.221-.154h.364a2.173,2.173,0,0,0,2.17-2.17V8.9A2.173,2.173,0,0,0,16.349,6.728Zm.723,2.894a.724.724,0,0,1-.723.723h-.364a1.684,1.684,0,0,0-1.559,1.048l0,.011a1.685,1.685,0,0,0,.361,1.843l.258.258a.723.723,0,0,1,0,1.023l-.511.512a.723.723,0,0,1-1.023,0l-.258-.258a1.685,1.685,0,0,0-1.844-.36l-.01,0a1.684,1.684,0,0,0-1.048,1.558v.364a.724.724,0,0,1-.723.723H8.9a.724.724,0,0,1-.723-.723v-.364a1.684,1.684,0,0,0-1.049-1.559l-.01,0a1.708,1.708,0,0,0-.656-.132,1.677,1.677,0,0,0-1.188.492l-.258.258a.723.723,0,0,1-1.023,0l-.512-.512a.723.723,0,0,1,0-1.023l.258-.258A1.685,1.685,0,0,0,4.1,11.4l0-.011a1.684,1.684,0,0,0-1.559-1.048H2.17a.724.724,0,0,1-.723-.723V8.9a.724.724,0,0,1,.723-.723h.364A1.685,1.685,0,0,0,4.094,7.124l0-.008a1.685,1.685,0,0,0-.361-1.844l-.258-.258a.724.724,0,0,1,0-1.023l.511-.512a.723.723,0,0,1,1.023,0l.258.258a1.685,1.685,0,0,0,1.844.36l.01,0A1.684,1.684,0,0,0,8.174,2.535V2.17A.724.724,0,0,1,8.9,1.447h.723a.724.724,0,0,1,.723.723v.364a1.684,1.684,0,0,0,1.049,1.559l.01,0a1.685,1.685,0,0,0,1.844-.361l.258-.258a.723.723,0,0,1,1.023,0l.512.512a.724.724,0,0,1,0,1.023l-.258.258a1.684,1.684,0,0,0-.362,1.841l.005.013a1.684,1.684,0,0,0,1.559,1.048h.364a.724.724,0,0,1,.723.723Z" fill="#282828"/>
    </g>
  </g>
</svg>
